<svg width="135" height="102" viewBox="0 0 135 102" fill="none" xmlns="http://www.w3.org/2000/svg">
<ellipse cx="81" cy="61" rx="41" ry="37" fill="#6B06BA"/>
<path d="M95.9035 52.4765C95.9035 44.3365 88.7206 37.7368 79.8605 37.7368C71.0005 37.7368 63.8176 44.3365 63.8176 52.4765M52.15 52.4765H107.571L101.446 84.4123H58.2755L52.15 52.4765Z" stroke="#B1B1B1" stroke-width="2" stroke-linecap="round" stroke-linejoin="round"/>
<path d="M69.6514 65.9878C71.2623 65.9878 72.5683 64.8879 72.5683 63.5312C72.5683 62.1744 71.2623 61.0746 69.6514 61.0746C68.0404 61.0746 66.7345 62.1744 66.7345 63.5312C66.7345 64.8879 68.0404 65.9878 69.6514 65.9878Z" fill="#B1B1B1"/>
<path d="M71.1098 72.1293C71.1098 72.1293 74.0267 75.8142 79.8605 75.8142C85.6943 75.8142 88.6112 72.1293 88.6112 72.1293" stroke="#B1B1B1" stroke-width="2" stroke-linecap="round" stroke-linejoin="round"/>
<path d="M90.0697 65.9878C91.6806 65.9878 92.9866 64.8879 92.9866 63.5312C92.9866 62.1744 91.6806 61.0746 90.0697 61.0746C88.4587 61.0746 87.1528 62.1744 87.1528 63.5312C87.1528 64.8879 88.4587 65.9878 90.0697 65.9878Z" fill="#B1B1B1"/>
</svg>
